<?xml version="1.0" encoding="UTF-8"?> <svg xmlns="http://www.w3.org/2000/svg" width="253" height="196" viewBox="0 0 253 196" fill="none"><rect width="253" height="196" fill="#A50064"></rect><path d="M103.312 118.588C114.674 118.588 123.602 109.529 123.602 97.9999C123.602 86.4704 114.674 77.4116 103.312 77.4116C91.9495 77.4116 83.022 86.4704 83.022 97.9999C83.022 109.529 91.9495 118.588 103.312 118.588ZM103.312 88.7057C108.413 88.7057 112.007 92.8234 112.007 97.9999C112.007 103.176 108.413 107.294 103.312 107.294C98.2104 107.294 94.6162 103.176 94.6162 97.9999C94.6162 92.8234 98.2104 88.7057 103.312 88.7057Z" fill="white"></path><path d="M61.6885 77.4116C58.4085 77.4116 55.0683 78.6504 52.5512 80.4975C50.2184 78.6504 47.1459 77.4116 43.9494 77.4116C35.4856 77.4116 28.877 82.8234 28.877 93.294V118H40.4712V92.2351C40.4712 90.2351 41.8625 88.8234 43.7175 88.8234C45.5726 88.8234 46.9639 90.2351 46.9639 92.2351V118H58.5581V92.2351C58.5581 90.2351 59.9494 88.8234 61.8045 88.8234C63.6596 88.8234 65.0509 90.2351 65.0509 92.2351V118H76.6451V93.294C76.6451 82.8234 69.9204 77.4116 61.6885 77.4116Z" fill="white"></path><path d="M204.413 118.588C215.776 118.588 224.703 109.529 224.703 97.9999C224.703 86.4704 215.776 77.4116 204.413 77.4116C193.051 77.4116 184.124 86.4704 184.124 97.9999C184.124 109.529 193.051 118.588 204.413 118.588ZM204.413 88.7057C209.515 88.7057 213.109 92.8234 213.109 97.9999C213.109 103.176 209.515 107.294 204.413 107.294C199.312 107.294 195.718 103.176 195.718 97.9999C195.718 92.8234 199.312 88.7057 204.413 88.7057Z" fill="white"></path><path d="M162.79 77.4116C159.51 77.4116 156.17 78.6504 153.653 80.4975C151.32 78.6504 148.247 77.4116 145.051 77.4116C136.587 77.4116 129.979 82.8234 129.979 93.294V118H141.573V92.2351C141.573 90.2351 142.964 88.8234 144.819 88.8234C146.674 88.8234 148.065 90.2351 148.065 92.2351V118H159.66V92.2351C159.66 90.2351 161.051 88.8234 162.906 88.8234C164.761 88.8234 166.152 90.2351 166.152 92.2351V118H177.747V93.294C177.747 82.8234 171.022 77.4116 162.79 77.4116Z" fill="white"></path></svg> 