<svg width="512" height="512" viewBox="0 0 512 512" fill="none" xmlns="http://www.w3.org/2000/svg">
  <circle cx="256" cy="256" r="248" fill="#F2DE46"/>
  <path d="M256 8C392.967 8 504 119.033 504 256C504 392.967 392.967 504 256 504V8Z" fill="#EBCF00"/>
  <path d="M373 222H243V172C243 159 228 151 218 160L101 245C91 253 91 269 101 277L218 362C228 371 243 363 243 350V300H373C387 300 398 289 398 275V247C398 233 387 222 373 222Z" fill="#D9D9D9"/>
  <path d="M355 222H373C387 222 398 233 398 247V275C398 289 387 300 373 300H355C369 300 380 289 380 275V247C380 233 369 222 355 222Z" fill="#C7CDD1"/>
  <path d="M217 160C227 151 243 159 243 172V207H225V182L123 261L225 340V315H243V350C243 363 228 371 218 362L101 277C91 269 91 253 101 245L217 160Z" fill="#C1C7CB"/>
  <path d="M373 215H250V172C250 153 228 143 214 155L97 240C81 254 81 268 97 282L214 367C228 379 250 369 250 350V307H373C391 307 405 293 405 275V247C405 229 391 215 373 215Z" stroke="#0B0B0F" stroke-width="14" stroke-linejoin="round"/>
  <path d="M142 256L204 201" stroke="#0B0B0F" stroke-width="14" stroke-linecap="round"/>
</svg>
