<svg xmlns="http://www.w3.org/2000/svg" viewBox="0 0 533.5 544.3" role="img" aria-label="Google logo">
  <path fill="#4285F4" d="M533.5 278.4c0-18.6-1.5-36.4-4.7-53.6H272v101.5h147.2c-6.3 34.4-25.7 63.5-54.8 83v68h88.6c51.8-47.7 80.5-118 80.5-198.9z"/>
  <path fill="#34A853" d="M272 544.3c73.8 0 135.8-24.4 181-66.2l-88.6-68c-24.7 16.7-56.3 26.3-92.4 26.3-71 0-131.2-47.9-152.7-112.2H27.9v70.5C73.8 483 165.1 544.3 272 544.3z"/>
  <path fill="#FBBC04" d="M119.3 324.2c-5.4-16.2-8.6-33.5-8.6-51.8s3.2-35.6 8.6-51.8v-70.5H27.9C10.1 186.7 0 228.3 0 272.4s10.1 85.7 27.9 122.3l91.4-70.5z"/>
  <path fill="#EA4335" d="M272 107.7c40.2 0 76.2 13.8 104.6 40.8l78.4-78.4C407.8 26.2 345.8 0 272 0 165.1 0 73.8 61.3 27.9 149.9l91.4 70.5C140.8 155.6 201 107.7 272 107.7z"/>
</svg>
